{
    "asset" : {
        "generator" : "Khronos glTF Blender I/O v1.3.48",
        "version" : "2.0"
    },
    "scene" : 0,
    "scenes" : [
        {
            "name" : "Scene",
            "nodes" : [
                0,
                1,
                2,
                3
            ]
        }
    ],
    "nodes" : [
        {
            "name" : "Camera",
            "rotation" : [
                0.483536034822464,
                0.33687159419059753,
                -0.20870360732078552,
                0.7804827094078064
            ],
            "translation" : [
                7.481131553649902,
                5.34366512298584,
                6.5076398849487305
            ]
        },
        {
            "name" : "Lamp",
            "rotation" : [
                0.16907551884651184,
                0.7558804750442505,
                -0.2721710503101349,
                0.5709475874900818
            ],
            "translation" : [
                0,
                1.600000023841858,
                0
            ]
        },
        {
            "mesh" : 0,
            "name" : "sunflower",
            "rotation" : [
                0.7071068286895752,
                0,
                0,
                0.7071067094802856
            ],
            "scale" : [
                0.30000001192092896,
                0.30000001192092896,
                0.30000001192092896
            ],
            "translation" : [
                -1.8256690502166748,
                0.39152565598487854,
                0
            ]
        },
        {
            "mesh" : 1,
            "name" : "Locomotive",
            "rotation" : [
                0,
                0.7071067094802856,
                0,
                0.7071068286895752
            ],
            "scale" : [
                0.0036905708257108927,
                0.0036905703600496054,
                0.0036905703600496054
            ],
            "translation" : [
                -0.013849209994077682,
                0.5097252130508423,
                0.8730753064155579
            ]
        }
    ],
    "materials" : [
        {
            "alphaMode" : "BLEND",
            "emissiveFactor" : [
                0,
                0,
                0
            ],
            "name" : "None.001",
            "pbrMetallicRoughness" : {
                "baseColorFactor" : [
                    0.800000011920929,
                    0.800000011920929,
                    0.800000011920929,
                    1
                ],
                "baseColorTexture" : {
                    "index" : 0,
                    "texCoord" : 0
                },
                "metallicFactor" : 0,
                "roughnessFactor" : 1
            }
        },
        {
            "doubleSided" : true,
            "emissiveFactor" : [
                0,
                0,
                0
            ],
            "name" : "Locomotive Body",
            "normalTexture" : {
                "index" : 1,
                "texCoord" : 0
            },
            "pbrMetallicRoughness" : {
                "baseColorTexture" : {
                    "index" : 2,
                    "texCoord" : 0
                },
                "metallicFactor" : 1,
                "roughnessFactor" : 0.858578622341156
            }
        },
        {
            "doubleSided" : true,
            "emissiveFactor" : [
                0,
                0,
                0
            ],
            "name" : "Glass",
            "pbrMetallicRoughness" : {
                "baseColorFactor" : [
                    0.10588236153125763,
                    0.10588236153125763,
                    0.10588236153125763,
                    1
                ],
                "metallicFactor" : 1,
                "roughnessFactor" : 0.858578622341156
            }
        },
        {
            "doubleSided" : true,
            "emissiveFactor" : [
                0,
                0,
                0
            ],
            "name" : "Rubber Smooth",
            "pbrMetallicRoughness" : {
                "metallicFactor" : 1,
                "roughnessFactor" : 0.858578622341156
            }
        },
        {
            "doubleSided" : true,
            "emissiveFactor" : [
                0,
                0,
                0
            ],
            "name" : "Painted Metal Yellow",
            "pbrMetallicRoughness" : {
                "metallicFactor" : 1,
                "roughnessFactor" : 0.858578622341156
            }
        },
        {
            "doubleSided" : true,
            "emissiveFactor" : [
                0,
                0,
                0
            ],
            "name" : "Rubber Smooth.001",
            "pbrMetallicRoughness" : {
                "metallicFactor" : 1,
                "roughnessFactor" : 0.858578622341156
            }
        },
        {
            "doubleSided" : true,
            "emissiveFactor" : [
                0,
                0,
                0
            ],
            "name" : "Glass.001",
            "pbrMetallicRoughness" : {
                "baseColorFactor" : [
                    0.10588236153125763,
                    0.10588236153125763,
                    0.10588236153125763,
                    0.2999999523162842
                ],
                "metallicFactor" : 1,
                "roughnessFactor" : 0.858578622341156
            }
        }
    ],
    "meshes" : [
        {
            "name" : "sunflower.001",
            "primitives" : [
                {
                    "attributes" : {
                        "POSITION" : 0,
                        "NORMAL" : 1,
                        "TEXCOORD_0" : 2
                    },
                    "indices" : 3,
                    "material" : 0
                }
            ]
        },
        {
            "name" : "Mesh",
            "primitives" : [
                {
                    "attributes" : {
                        "POSITION" : 4,
                        "NORMAL" : 5,
                        "TEXCOORD_0" : 6
                    },
                    "indices" : 7,
                    "material" : 1
                },
                {
                    "attributes" : {
                        "POSITION" : 8,
                        "NORMAL" : 9,
                        "TEXCOORD_0" : 10
                    },
                    "indices" : 11,
                    "material" : 2
                },
                {
                    "attributes" : {
                        "POSITION" : 12,
                        "NORMAL" : 13,
                        "TEXCOORD_0" : 14
                    },
                    "indices" : 15,
                    "material" : 3
                },
                {
                    "attributes" : {
                        "POSITION" : 16,
                        "NORMAL" : 17,
                        "TEXCOORD_0" : 18
                    },
                    "indices" : 19,
                    "material" : 4
                },
                {
                    "attributes" : {
                        "POSITION" : 20,
                        "NORMAL" : 21,
                        "TEXCOORD_0" : 22
                    },
                    "indices" : 23,
                    "material" : 5
                },
                {
                    "attributes" : {
                        "POSITION" : 24,
                        "NORMAL" : 25,
                        "TEXCOORD_0" : 26
                    },
                    "indices" : 27,
                    "material" : 6
                }
            ]
        }
    ],
    "textures" : [
        {
            "source" : 0
        },
        {
            "source" : 1
        },
        {
            "source" : 2
        }
    ],
    "images" : [
        {
            "mimeType" : "image/png",
            "name" : "PUSHILIN_sunflower",
            "uri" : "PUSHILIN_sunflower.png"
        },
        {
            "mimeType" : "image/png",
            "name" : "Locomotive Body (N)",
            "uri" : "Locomotive%20Body%20N.png"
        },
        {
            "mimeType" : "image/png",
            "name" : "Locomotive Body (D)",
            "uri" : "Locomotive%20Body%20D.png"
        }
    ],
    "accessors" : [
        {
            "bufferView" : 0,
            "componentType" : 5126,
            "count" : 684,
            "max" : [
                0.6084539890289307,
                0.45397499203681946,
                1.3026560544967651
            ],
            "min" : [
                -0.6065940260887146,
                -0.4599300026893616,
                -0.6320639848709106
            ],
            "type" : "VEC3"
        },
        {
            "bufferView" : 1,
            "componentType" : 5126,
            "count" : 684,
            "type" : "VEC3"
        },
        {
            "bufferView" : 2,
            "componentType" : 5126,
            "count" : 684,
            "type" : "VEC2"
        },
        {
            "bufferView" : 3,
            "componentType" : 5123,
            "count" : 1020,
            "type" : "SCALAR"
        },
        {
            "bufferView" : 4,
            "componentType" : 5126,
            "count" : 110011,
            "max" : [
                1097.7344970703125,
                296.7083435058594,
                156.636474609375
            ],
            "min" : [
                -919.4848022460938,
                -137.68289184570312,
                -153.8091583251953
            ],
            "type" : "VEC3"
        },
        {
            "bufferView" : 5,
            "componentType" : 5126,
            "count" : 110011,
            "type" : "VEC3"
        },
        {
            "bufferView" : 6,
            "componentType" : 5126,
            "count" : 110011,
            "type" : "VEC2"
        },
        {
            "bufferView" : 7,
            "componentType" : 5125,
            "count" : 312648,
            "type" : "SCALAR"
        },
        {
            "bufferView" : 8,
            "componentType" : 5126,
            "count" : 78,
            "max" : [
                998.2715454101562,
                243.08505249023438,
                82.04359436035156
            ],
            "min" : [
                -903.286376953125,
                27.519866943359375,
                -79.28551483154297
            ],
            "type" : "VEC3"
        },
        {
            "bufferView" : 9,
            "componentType" : 5126,
            "count" : 78,
            "type" : "VEC3"
        },
        {
            "bufferView" : 10,
            "componentType" : 5126,
            "count" : 78,
            "type" : "VEC2"
        },
        {
            "bufferView" : 11,
            "componentType" : 5123,
            "count" : 180,
            "type" : "SCALAR"
        },
        {
            "bufferView" : 12,
            "componentType" : 5126,
            "count" : 218,
            "max" : [
                -160.16329956054688,
                267.9142761230469,
                127.9898452758789
            ],
            "min" : [
                -702.8045043945312,
                204.11947631835938,
                -82.87267303466797
            ],
            "type" : "VEC3"
        },
        {
            "bufferView" : 13,
            "componentType" : 5126,
            "count" : 218,
            "type" : "VEC3"
        },
        {
            "bufferView" : 14,
            "componentType" : 5126,
            "count" : 218,
            "type" : "VEC2"
        },
        {
            "bufferView" : 15,
            "componentType" : 5123,
            "count" : 384,
            "type" : "SCALAR"
        },
        {
            "bufferView" : 16,
            "componentType" : 5126,
            "count" : 2048,
            "max" : [
                1053.2542724609375,
                255.83804321289062,
                156.27943420410156
            ],
            "min" : [
                -901.246826171875,
                -55.24005126953125,
                -153.4519500732422
            ],
            "type" : "VEC3"
        },
        {
            "bufferView" : 17,
            "componentType" : 5126,
            "count" : 2048,
            "type" : "VEC3"
        },
        {
            "bufferView" : 18,
            "componentType" : 5126,
            "count" : 2048,
            "type" : "VEC2"
        },
        {
            "bufferView" : 19,
            "componentType" : 5123,
            "count" : 4824,
            "type" : "SCALAR"
        },
        {
            "bufferView" : 20,
            "componentType" : 5126,
            "count" : 3956,
            "max" : [
                994.9462280273438,
                282.7000427246094,
                143.56494140625
            ],
            "min" : [
                -878.4444580078125,
                -56.67474365234375,
                -140.7376251220703
            ],
            "type" : "VEC3"
        },
        {
            "bufferView" : 21,
            "componentType" : 5126,
            "count" : 3956,
            "type" : "VEC3"
        },
        {
            "bufferView" : 22,
            "componentType" : 5126,
            "count" : 3956,
            "type" : "VEC2"
        },
        {
            "bufferView" : 23,
            "componentType" : 5123,
            "count" : 8748,
            "type" : "SCALAR"
        },
        {
            "bufferView" : 24,
            "componentType" : 5126,
            "count" : 74,
            "max" : [
                -480.8126220703125,
                246.82125854492188,
                143.52345275878906
            ],
            "min" : [
                -717.0897216796875,
                179.60354614257812,
                -140.69613647460938
            ],
            "type" : "VEC3"
        },
        {
            "bufferView" : 25,
            "componentType" : 5126,
            "count" : 74,
            "type" : "VEC3"
        },
        {
            "bufferView" : 26,
            "componentType" : 5126,
            "count" : 74,
            "type" : "VEC2"
        },
        {
            "bufferView" : 27,
            "componentType" : 5123,
            "count" : 156,
            "type" : "SCALAR"
        }
    ],
    "bufferViews" : [
        {
            "buffer" : 0,
            "byteLength" : 8208,
            "byteOffset" : 0
        },
        {
            "buffer" : 0,
            "byteLength" : 8208,
            "byteOffset" : 8208
        },
        {
            "buffer" : 0,
            "byteLength" : 5472,
            "byteOffset" : 16416
        },
        {
            "buffer" : 0,
            "byteLength" : 2040,
            "byteOffset" : 21888
        },
        {
            "buffer" : 0,
            "byteLength" : 1320132,
            "byteOffset" : 23928
        },
        {
            "buffer" : 0,
            "byteLength" : 1320132,
            "byteOffset" : 1344060
        },
        {
            "buffer" : 0,
            "byteLength" : 880088,
            "byteOffset" : 2664192
        },
        {
            "buffer" : 0,
            "byteLength" : 1250592,
            "byteOffset" : 3544280
        },
        {
            "buffer" : 0,
            "byteLength" : 936,
            "byteOffset" : 4794872
        },
        {
            "buffer" : 0,
            "byteLength" : 936,
            "byteOffset" : 4795808
        },
        {
            "buffer" : 0,
            "byteLength" : 624,
            "byteOffset" : 4796744
        },
        {
            "buffer" : 0,
            "byteLength" : 360,
            "byteOffset" : 4797368
        },
        {
            "buffer" : 0,
            "byteLength" : 2616,
            "byteOffset" : 4797728
        },
        {
            "buffer" : 0,
            "byteLength" : 2616,
            "byteOffset" : 4800344
        },
        {
            "buffer" : 0,
            "byteLength" : 1744,
            "byteOffset" : 4802960
        },
        {
            "buffer" : 0,
            "byteLength" : 768,
            "byteOffset" : 4804704
        },
        {
            "buffer" : 0,
            "byteLength" : 24576,
            "byteOffset" : 4805472
        },
        {
            "buffer" : 0,
            "byteLength" : 24576,
            "byteOffset" : 4830048
        },
        {
            "buffer" : 0,
            "byteLength" : 16384,
            "byteOffset" : 4854624
        },
        {
            "buffer" : 0,
            "byteLength" : 9648,
            "byteOffset" : 4871008
        },
        {
            "buffer" : 0,
            "byteLength" : 47472,
            "byteOffset" : 4880656
        },
        {
            "buffer" : 0,
            "byteLength" : 47472,
            "byteOffset" : 4928128
        },
        {
            "buffer" : 0,
            "byteLength" : 31648,
            "byteOffset" : 4975600
        },
        {
            "buffer" : 0,
            "byteLength" : 17496,
            "byteOffset" : 5007248
        },
        {
            "buffer" : 0,
            "byteLength" : 888,
            "byteOffset" : 5024744
        },
        {
            "buffer" : 0,
            "byteLength" : 888,
            "byteOffset" : 5025632
        },
        {
            "buffer" : 0,
            "byteLength" : 592,
            "byteOffset" : 5026520
        },
        {
            "buffer" : 0,
            "byteLength" : 312,
            "byteOffset" : 5027112
        }
    ],
    "buffers" : [
        {
            "byteLength" : 5027424,
            "uri" : "train.bin"
        }
    ]
}
